<svg xmlns="http://www.w3.org/2000/svg" xmlns:xlink="http://www.w3.org/1999/xlink" width="1080" zoomAndPan="magnify" viewBox="0 0 810 809.999993" height="1080" preserveAspectRatio="xMidYMid meet" version="1.0"><defs><clipPath id="2c99b6156b"><path d="M 318 659 L 492 659 L 492 728.769531 L 318 728.769531 Z M 318 659 " clip-rule="nonzero"/></clipPath><clipPath id="999e626e90"><path d="M 91.207031 39 L 718.957031 39 L 718.957031 635 L 91.207031 635 Z M 91.207031 39 " clip-rule="nonzero"/></clipPath></defs><rect x="-81" width="972" fill="#ffffff" y="-80.999999" height="971.999992" fill-opacity="1"/><rect x="-81" width="972" fill="#ffffff" y="-80.999999" height="971.999992" fill-opacity="1"/><g clip-path="url(#2c99b6156b)"><path fill="#727374" d="M 405 697.707031 C 380.054688 697.707031 357.589844 682.960938 347.527344 660.082031 L 318.859375 672.625 C 333.882812 706.804688 367.648438 728.992188 405 728.992188 C 442.898438 728.992188 476.804688 706.527344 491.550781 671.660156 L 462.746094 659.394531 C 452.824219 682.683594 430.21875 697.707031 405 697.707031 Z M 405 697.707031 " fill-opacity="1" fill-rule="nonzero"/></g><g clip-path="url(#999e626e90)"><path fill="#727374" d="M 712.613281 591.722656 L 629.921875 522.8125 C 626.339844 519.78125 624.273438 515.507812 624.273438 510.824219 L 624.273438 321.730469 C 624.273438 261.230469 600.152344 204.859375 556.328125 163.101562 C 530.554688 138.570312 499.957031 121.203125 466.878906 111.554688 C 467.570312 106.730469 467.84375 101.90625 467.433594 96.808594 C 465.089844 70.070312 445.378906 47.332031 419.46875 41.542969 C 400.449219 37.269531 380.878906 41.679688 365.859375 53.671875 C 350.972656 65.660156 342.429688 83.441406 342.429688 102.597656 C 342.429688 105.765625 342.980469 108.660156 343.394531 111.695312 C 251.878906 138.980469 185.726562 225.257812 185.726562 327.519531 L 185.726562 510.683594 C 185.726562 515.371094 183.660156 519.78125 180.074219 522.675781 L 97.382812 591.585938 C 93.800781 594.617188 91.734375 599.027344 91.734375 603.574219 L 91.734375 619.289062 C 91.734375 627.96875 98.761719 635 107.445312 635 L 702.554688 635 C 711.238281 635 718.265625 627.96875 718.265625 619.289062 L 718.265625 603.574219 C 718.128906 599.027344 716.0625 594.617188 712.613281 591.722656 Z M 373.574219 102.597656 C 373.574219 92.949219 377.847656 84.128906 385.289062 78.066406 C 392.871094 72 402.378906 69.796875 412.441406 72 C 424.984375 74.894531 434.90625 86.335938 436.148438 99.425781 C 436.285156 101.21875 436.007812 103.011719 435.871094 104.800781 C 422.226562 102.871094 408.445312 102.183594 394.25 102.734375 C 387.359375 103.011719 380.46875 103.699219 373.714844 104.800781 C 373.851562 103.976562 373.574219 103.285156 373.574219 102.597656 Z M 131.839844 603.714844 L 200.058594 546.792969 C 210.808594 537.835938 217.011719 524.742188 217.011719 510.683594 L 217.011719 327.519531 C 217.011719 223.742188 295.570312 138.707031 395.902344 134.019531 C 448 131.539062 497.203125 150.007812 534.6875 185.703125 C 572.175781 221.535156 592.847656 269.773438 592.847656 321.730469 L 592.847656 510.683594 C 592.847656 524.605469 599.050781 537.835938 609.800781 546.792969 L 678.023438 603.714844 Z M 131.839844 603.714844 " fill-opacity="1" fill-rule="nonzero"/></g></svg>