<svg xmlns="http://www.w3.org/2000/svg" xmlns:xlink="http://www.w3.org/1999/xlink" width="1080" zoomAndPan="magnify" viewBox="0 0 810 809.999993" height="1080" preserveAspectRatio="xMidYMid meet" version="1.0"><defs><clipPath id="bb71b81674"><path d="M 260 131 L 546 131 L 546 155 L 260 155 Z M 260 131 " clip-rule="nonzero"/></clipPath><clipPath id="61428cb83b"><path d="M 67.488281 103.5 L 67.488281 688.460938 C 67.488281 700.886719 77.5625 710.960938 89.988281 710.960938 L 720.011719 710.960938 C 732.4375 710.960938 742.511719 700.886719 742.511719 688.460938 L 742.511719 103.5 C 742.511719 97.53125 740.140625 91.808594 735.921875 87.589844 C 731.703125 83.371094 725.980469 81 720.011719 81 L 89.988281 81 C 77.5625 81 67.488281 91.074219 67.488281 103.5 Z M 67.488281 103.5 " clip-rule="nonzero"/></clipPath><clipPath id="97fb6620e0"><path d="M 67.5 131.382812 L 742.488281 131.382812 L 742.488281 710.964844 L 67.5 710.964844 Z M 67.5 131.382812 " clip-rule="nonzero"/></clipPath><clipPath id="12420e2396"><path d="M 67.488281 103.5 L 67.488281 688.460938 C 67.488281 700.886719 77.5625 710.960938 89.988281 710.960938 L 720.011719 710.960938 C 732.4375 710.960938 742.511719 700.886719 742.511719 688.460938 L 742.511719 103.5 C 742.511719 97.53125 740.140625 91.808594 735.921875 87.589844 C 731.703125 83.371094 725.980469 81 720.011719 81 L 89.988281 81 C 77.5625 81 67.488281 91.074219 67.488281 103.5 Z M 67.488281 103.5 " clip-rule="nonzero"/></clipPath><clipPath id="36dd7e363e"><path d="M 205 86 L 247 86 L 247 211 L 205 211 Z M 205 86 " clip-rule="nonzero"/></clipPath><clipPath id="813411e542"><path d="M 67.488281 103.5 L 67.488281 688.460938 C 67.488281 700.886719 77.5625 710.960938 89.988281 710.960938 L 720.011719 710.960938 C 732.4375 710.960938 742.511719 700.886719 742.511719 688.460938 L 742.511719 103.5 C 742.511719 97.53125 740.140625 91.808594 735.921875 87.589844 C 731.703125 83.371094 725.980469 81 720.011719 81 L 89.988281 81 C 77.5625 81 67.488281 91.074219 67.488281 103.5 Z M 67.488281 103.5 " clip-rule="nonzero"/></clipPath><clipPath id="bba7d68ef5"><path d="M 559 81 L 601 81 L 601 205 L 559 205 Z M 559 81 " clip-rule="nonzero"/></clipPath><clipPath id="3e9f82cb43"><path d="M 67.488281 103.5 L 67.488281 688.460938 C 67.488281 700.886719 77.5625 710.960938 89.988281 710.960938 L 720.011719 710.960938 C 732.4375 710.960938 742.511719 700.886719 742.511719 688.460938 L 742.511719 103.5 C 742.511719 97.53125 740.140625 91.808594 735.921875 87.589844 C 731.703125 83.371094 725.980469 81 720.011719 81 L 89.988281 81 C 77.5625 81 67.488281 91.074219 67.488281 103.5 Z M 67.488281 103.5 " clip-rule="nonzero"/></clipPath></defs><rect x="-81" width="972" fill="#ffffff" y="-80.999999" height="971.999992" fill-opacity="1"/><rect x="-81" width="972" fill="#ffffff" y="-80.999999" height="971.999992" fill-opacity="1"/><g clip-path="url(#bb71b81674)"><g clip-path="url(#61428cb83b)"><path fill="#727374" d="M 265.132812 154.484375 L 540.8125 154.484375 C 543.359375 154.484375 545.425781 152.421875 545.425781 149.875 L 545.425781 136.046875 C 545.425781 133.5 543.359375 131.433594 540.8125 131.433594 L 265.132812 131.433594 C 262.585938 131.433594 260.523438 133.5 260.523438 136.046875 L 260.523438 149.875 C 260.523438 152.421875 262.585938 154.484375 265.132812 154.484375 " fill-opacity="1" fill-rule="nonzero"/></g></g><g clip-path="url(#97fb6620e0)"><g clip-path="url(#12420e2396)"><path fill="#727374" d="M 670.730469 687.910156 L 139.28125 687.910156 C 112.367188 687.910156 90.550781 666.097656 90.550781 639.183594 L 90.550781 314.820312 L 719.453125 314.820312 L 719.453125 639.183594 C 719.453125 666.097656 697.636719 687.910156 670.730469 687.910156 Z M 670.730469 131.429688 L 619.183594 131.429688 C 616.636719 131.429688 614.574219 133.496094 614.574219 136.042969 L 614.574219 149.871094 C 614.574219 152.417969 616.636719 154.484375 619.183594 154.484375 L 670.730469 154.484375 C 697.605469 154.484375 719.453125 176.332031 719.453125 203.257812 L 719.453125 291.769531 L 90.550781 291.769531 L 90.550781 203.257812 C 90.550781 176.332031 112.402344 154.484375 139.28125 154.484375 L 186.761719 154.484375 C 189.308594 154.484375 191.371094 152.417969 191.371094 149.871094 L 191.371094 136.042969 C 191.371094 133.496094 189.308594 131.429688 186.761719 131.429688 L 139.28125 131.429688 C 99.726562 131.429688 67.5 163.65625 67.5 203.257812 L 67.5 639.183594 C 67.5 678.660156 99.800781 710.964844 139.28125 710.964844 L 670.730469 710.964844 C 710.207031 710.964844 742.507812 678.660156 742.507812 639.183594 L 742.507812 203.257812 C 742.507812 163.65625 710.28125 131.429688 670.730469 131.429688 " fill-opacity="1" fill-rule="nonzero"/></g></g><g clip-path="url(#36dd7e363e)"><g clip-path="url(#813411e542)"><path fill="#727374" d="M 225.949219 210.589844 C 237.382812 210.589844 246.691406 201.324219 246.691406 189.84375 L 246.691406 107.464844 C 246.691406 95.984375 237.382812 86.71875 225.949219 86.71875 C 214.46875 86.71875 205.203125 95.984375 205.203125 107.464844 L 205.203125 189.84375 C 205.203125 201.324219 214.46875 210.589844 225.949219 210.589844 " fill-opacity="1" fill-rule="nonzero"/></g></g><g clip-path="url(#bba7d68ef5)"><g clip-path="url(#3e9f82cb43)"><path fill="#727374" d="M 579.996094 204.917969 C 591.433594 204.917969 600.742188 195.601562 600.742188 184.171875 L 600.742188 101.742188 C 600.742188 90.3125 591.433594 81 579.996094 81 C 568.519531 81 559.257812 90.3125 559.257812 101.742188 L 559.257812 184.171875 C 559.257812 195.601562 568.519531 204.917969 579.996094 204.917969 " fill-opacity="1" fill-rule="nonzero"/></g></g></svg>